<?xml version="1.0" encoding="UTF-8" standalone="no"?><!DOCTYPE svg PUBLIC "-//W3C//DTD SVG 1.1//EN" "http://www.w3.org/Graphics/SVG/1.1/DTD/svg11.dtd"><svg width="100%" height="100%" viewBox="0 0 2084 834" version="1.1" xmlns="http://www.w3.org/2000/svg" xmlns:xlink="http://www.w3.org/1999/xlink" xml:space="preserve" xmlns:serif="http://www.serif.com/" style="fill-rule:evenodd;clip-rule:evenodd;stroke-linejoin:round;stroke-miterlimit:2;"><g><g transform="matrix(458.922,0,0,458.922,105.267,550.085)"><path d="M0.338,0.009c-0.056,-0 -0.105,-0.013 -0.148,-0.037c-0.043,-0.025 -0.077,-0.06 -0.101,-0.104c-0.025,-0.045 -0.037,-0.096 -0.037,-0.153c0,-0.057 0.013,-0.108 0.038,-0.153c0.025,-0.044 0.059,-0.079 0.103,-0.105c0.043,-0.026 0.093,-0.039 0.148,-0.039c0.054,-0 0.101,0.012 0.142,0.037c0.041,0.025 0.073,0.059 0.096,0.103c0.023,0.044 0.035,0.094 0.035,0.152c-0,0.042 -0.007,0.081 -0.021,0.117c-0.014,0.036 -0.034,0.068 -0.059,0.095c-0.025,0.027 -0.054,0.049 -0.087,0.064c-0.033,0.015 -0.07,0.023 -0.109,0.023Zm0.01,-0.047c0.037,-0 0.069,-0.01 0.096,-0.028c0.027,-0.019 0.048,-0.046 0.064,-0.08c0.015,-0.035 0.022,-0.075 0.022,-0.121c0,-0.054 -0.008,-0.1 -0.025,-0.141c-0.017,-0.04 -0.04,-0.072 -0.071,-0.095c-0.03,-0.023 -0.065,-0.035 -0.105,-0.035c-0.058,0 -0.105,0.021 -0.139,0.064c-0.034,0.042 -0.051,0.1 -0.051,0.173c-0,0.051 0.009,0.096 0.027,0.136c0.018,0.039 0.042,0.07 0.074,0.093c0.032,0.022 0.068,0.034 0.108,0.034Z" style="fill:#2d3a30;fill-rule:nonzero;"/></g><g transform="matrix(458.922,0,0,458.922,410.619,550.085)"><path d="M0.031,-0l-0.002,-0.033l0.064,-0.013c0.001,-0.008 0.002,-0.018 0.002,-0.032c0.001,-0.014 0.001,-0.033 0.002,-0.058c0,-0.025 0,-0.058 0,-0.098l0,-0.121c0,-0.025 0,-0.051 -0,-0.078c-0.001,-0.027 -0.001,-0.053 -0.001,-0.077c-0.001,-0.024 -0.001,-0.044 -0.001,-0.061c-0.001,-0.016 -0.001,-0.027 -0.001,-0.03l-0.072,-0.01l-0.002,-0.028l0.126,-0.038l0.016,0.013c-0,0.028 -0.001,0.055 -0.002,0.083c-0,0.027 -0.001,0.058 -0.001,0.091c-0,0.034 -0,0.074 -0,0.121l-0.001,0.161c-0,0.036 0,0.07 0.001,0.1c0.001,0.031 0.003,0.051 0.003,0.062l0.064,0.013l-0.002,0.033l-0.193,0Z" style="fill:#2d3a30;fill-rule:nonzero;"/></g><g transform="matrix(458.922,0,0,458.922,527.518,550.085)"><path d="M0.239,0.008c-0.036,-0 -0.069,-0.008 -0.099,-0.025c-0.029,-0.016 -0.053,-0.04 -0.071,-0.071c-0.017,-0.031 -0.026,-0.069 -0.026,-0.112c-0,-0.047 0.009,-0.087 0.027,-0.121c0.019,-0.034 0.043,-0.059 0.072,-0.078c0.03,-0.018 0.062,-0.027 0.097,-0.026c0.048,0.001 0.087,0.017 0.115,0.049c0.028,0.032 0.042,0.08 0.042,0.142l-0,0.016l-0.305,-0l0,-0.041l0.249,0l-0.009,0.01l-0,-0.017c-0,-0.039 -0.009,-0.07 -0.027,-0.091c-0.017,-0.021 -0.042,-0.031 -0.073,-0.031c-0.019,-0 -0.037,0.005 -0.055,0.017c-0.018,0.011 -0.033,0.028 -0.044,0.051c-0.012,0.022 -0.017,0.051 -0.017,0.086l-0,0.009c-0,0.056 0.013,0.099 0.04,0.13c0.027,0.03 0.061,0.045 0.103,0.045c0.024,0 0.044,-0.004 0.063,-0.014c0.018,-0.009 0.035,-0.024 0.052,-0.044l0.023,0.02c-0.018,0.033 -0.041,0.057 -0.067,0.072c-0.027,0.016 -0.057,0.024 -0.09,0.024Z" style="fill:#2d3a30;fill-rule:nonzero;"/></g><g transform="matrix(458.922,0,0,458.922,726.318,550.085)"><path d="M0.195,0.008c-0.025,-0 -0.047,-0.005 -0.067,-0.015c-0.019,-0.009 -0.035,-0.022 -0.047,-0.038c-0.011,-0.015 -0.017,-0.032 -0.017,-0.05c-0,-0.022 0.007,-0.039 0.021,-0.053c0.014,-0.014 0.038,-0.027 0.071,-0.038l0.148,-0.051l-0,-0.054c-0,-0.017 -0.006,-0.032 -0.016,-0.046c-0.01,-0.013 -0.023,-0.024 -0.04,-0.032c-0.017,-0.008 -0.036,-0.012 -0.057,-0.012c-0.018,0 -0.03,0.004 -0.036,0.011c-0.007,0.007 -0.01,0.022 -0.012,0.044l-0.001,0.035c-0.021,0.006 -0.039,0.005 -0.054,-0.002c-0.015,-0.006 -0.022,-0.016 -0.022,-0.031c-0,-0.01 0.004,-0.021 0.013,-0.031c0.009,-0.011 0.02,-0.021 0.035,-0.031c0.014,-0.01 0.03,-0.018 0.048,-0.025c0.017,-0.007 0.035,-0.011 0.053,-0.014c0.045,0 0.081,0.013 0.109,0.037c0.028,0.025 0.042,0.058 0.043,0.098l-0.002,0.172c-0,0.01 0,0.022 0.002,0.034c0.001,0.013 0.002,0.022 0.004,0.027l0.062,0.012l-0,0.027l-0.044,0.015c-0.009,0.003 -0.016,0.006 -0.023,0.008c-0.007,0.002 -0.013,0.003 -0.018,0.003c-0.018,-0 -0.03,-0.011 -0.035,-0.033l-0.008,-0.036l0.013,-0.002c-0.022,0.024 -0.043,0.042 -0.062,0.054c-0.02,0.011 -0.04,0.017 -0.061,0.017Zm0.019,-0.049c0.017,-0 0.033,-0.004 0.047,-0.012c0.015,-0.008 0.029,-0.02 0.043,-0.036l-0,-0.105l-0.122,0.035c-0.016,0.004 -0.027,0.01 -0.034,0.019c-0.007,0.009 -0.01,0.02 -0.01,0.033c-0,0.017 0.007,0.032 0.023,0.045c0.016,0.014 0.033,0.021 0.053,0.021Z" style="fill:#2d3a30;fill-rule:nonzero;"/></g><g transform="matrix(458.922,0,0,458.922,936.398,550.085)"></g><g transform="matrix(458.922,0,0,458.922,1021.92,550.085)"></g><g transform="matrix(458.922,0,0,458.922,1107.45,550.085)"></g><rect x="1016.67" y="189.583" width="937.5" height="462.5" style="fill:#1a1a1e;"/><g transform="matrix(1,0,0,0.860696,0,-308.56)"><g transform="matrix(378.697,0,0,378.697,1994.1,939.525)"></g><text x="1053.41px" y="939.525px" style="font-family:'AvenirNextCondensed-Regular', 'Avenir Next Condensed', sans-serif;font-stretch:condensed;font-size:378.697px;fill:#f5f5f7;">S<tspan x="1213.22px 1355.23px " y="939.525px 939.525px ">yn</tspan>tax</text></g></g></svg>